<svg width="44" height="44" viewBox="0 0 44 44" fill="none" xmlns="http://www.w3.org/2000/svg">
<rect width="44" height="44" rx="10" fill="#3F8AE0"/>
<path d="M29.65 19.9215C30.8314 20.6036 31.4221 20.9446 31.6203 21.3898C31.7932 21.7782 31.7932 22.2217 31.6203 22.61C31.4221 23.0553 30.8314 23.3963 29.65 24.0784L19.6 29.8808C18.4186 30.5628 17.8279 30.9039 17.3432 30.8529C16.9204 30.8085 16.5364 30.5868 16.2865 30.2428C16 29.8485 16 29.1665 16 27.8023L16 16.1976C16 14.8334 16 14.1513 16.2865 13.757C16.5364 13.4131 16.9204 13.1914 17.3432 13.1469C17.8279 13.096 18.4186 13.437 19.6 14.1191L29.65 19.9215Z" fill="white"/>
</svg>
